<svg width="30" height="31" viewBox="0 0 30 31" fill="none" xmlns="http://www.w3.org/2000/svg">
<g clip-path="url(#clip0_491_15162)">
<path d="M2.34468 11.0828C1.04999 11.0828 0 10.0735 0 8.82901V3.83739C0 1.7204 1.81258 0 4.04344 0H13.2998C14.5945 0 15.6445 1.00926 15.6445 2.25375C15.6445 3.49824 14.5945 4.5075 13.2998 4.5075H4.69221V8.82627C4.69221 10.0708 3.64223 11.08 2.34753 11.08L2.34468 11.0828Z" fill="#27FB6B"/>
<path d="M25.3256 11.5586H25.2972C24.0025 11.545 22.9639 10.522 22.9781 9.27754C22.9952 7.87441 22.4346 6.44667 21.5127 5.55229C20.8867 4.94235 20.1411 4.63328 19.3017 4.63328C18.007 4.63328 16.957 3.62402 16.957 2.37953C16.957 1.13505 18.007 0.123047 19.3017 0.123047C21.4131 0.123047 23.3338 0.90256 24.8504 2.37953C26.6488 4.12728 27.7016 6.72566 27.6703 9.3295C27.6561 10.5658 26.6089 11.5586 25.3256 11.5586Z" fill="#27FB6B"/>
<path d="M18.3278 30.9996C18.0063 30.9996 17.6335 30.9996 17.2408 30.9941H3.99791C1.7955 30.9941 0 29.2929 0 27.2005V24.8866C0 23.6421 1.04999 22.6328 2.34468 22.6328C3.63938 22.6328 4.68937 23.6421 4.68937 24.8866V26.4839H17.2579C18.379 26.4948 19.3152 26.4839 19.3152 26.4839C20.6013 26.4894 21.6712 27.4685 21.6855 28.7157C21.6997 29.9602 20.6611 30.9804 19.3636 30.9941C19.3636 30.9941 18.9396 30.9996 18.3221 30.9996H18.3278Z" fill="#27FB6B"/>
<path d="M25.4102 29.6106C24.6789 29.6106 23.959 29.2823 23.5009 28.6697C22.7468 27.6577 22.9887 26.2491 24.0415 25.5243C25.0887 24.8049 25.6208 22.5348 25.1171 20.9402C24.5708 19.2116 23.1509 17.1493 19.4006 17.1684L4.68937 17.1548V18.867C4.68937 20.1114 3.63938 21.1207 2.34468 21.1207C1.04999 21.1207 0 20.1114 0 18.867V16.512C0 15.4645 0.432514 14.4853 1.22072 13.7523C1.98615 13.0384 3.00199 12.6445 4.07474 12.6445H4.07759L19.3949 12.6582C19.4119 12.6582 19.4262 12.6582 19.4432 12.6582C24.4228 12.6582 28.2244 15.2621 29.6045 19.6301C30.5748 22.7044 29.7809 27.1216 26.7732 29.1921C26.3606 29.4765 25.8826 29.6133 25.4102 29.6133V29.6106Z" fill="#27FB6B"/>
</g>
<defs>
<clipPath id="clip0_491_15162">
<rect width="30" height="31" fill="white"/>
</clipPath>
</defs>
</svg>
